<svg xmlns="http://www.w3.org/2000/svg" xmlns:xlink="http://www.w3.org/1999/xlink" viewBox="0 0 1320.24 418.95"><defs><clipPath id="b4e1bdce-cc8c-4772-8859-b3168ee65804" transform="translate(-68.74 -61.2)"><rect width="1496" height="590.04" fill="none"/></clipPath></defs><title>Lulearn-logo</title><g id="fe0b5d17-c966-4e17-aeb8-e58987bab18b" data-name="Layer 2"><g id="a8f29a3c-416d-41ea-ab9b-2bca4261f7ec" data-name="Layer 1"><g clip-path="url(#b4e1bdce-cc8c-4772-8859-b3168ee65804)"><path d="M1244.24,358.78V187.47a28.69,28.69,0,0,1,2-11.31,26,26,0,0,1,5.65-8.76,33.19,33.19,0,0,1,8.48-5.37,32.3,32.3,0,0,1,9.05-2,28.36,28.36,0,0,1,7.07.85,37,37,0,0,1,6.78,3.39,31.32,31.32,0,0,1,5.65,5.09,36.07,36.07,0,0,1,4.53,7.35l69,144.17V160.61H1389V345.49a23.59,23.59,0,0,1-1.42,8.2,9.45,9.45,0,0,1-4.24,5.09,29.93,29.93,0,0,1-5.93,3.11,28.77,28.77,0,0,1-7.07.85h-2.26l-.28-.29h-.57a39.76,39.76,0,0,1-6.22-1.13c-2-.84-4.24-1.69-6.22-2.54a14.78,14.78,0,0,1-4.8-3.39,14,14,0,0,1-3.11-4.81l-73.5-152.09V358.78Zm-155.76,0V234.11q0-18.23,4.24-32.22a59.6,59.6,0,0,1,12.43-23.75,55.2,55.2,0,0,1,20.92-15.27c8.2-3.67,18.1-5.65,29.12-6.22a67.27,67.27,0,0,1,22.9,4c7.07,2.55,13.29,6.79,19.22,12.16a56.31,56.31,0,0,1,13.57,17.53,48,48,0,0,1,4.52,20.91v3.4a65.28,65.28,0,0,1-1.41,13,63.65,63.65,0,0,1-4,12.44,38.57,38.57,0,0,1-7.06,10.18,34.44,34.44,0,0,1-9.9,6.78,47,47,0,0,1,10.18,6.22,37.82,37.82,0,0,1,7.91,9.61,52.68,52.68,0,0,1,4.81,11.59,49.22,49.22,0,0,1,1.7,12.72v61.63h-26.86V300.83a28.82,28.82,0,0,0-2.54-12.44,23.64,23.64,0,0,0-7.92-8.76,52.22,52.22,0,0,0-12.15-5.37,62,62,0,0,0-15-1.7l-26.85-.57V247.4h22.33a2.15,2.15,0,0,0,1.13.56,1.66,1.66,0,0,0,1.13.29h5.37a1,1,0,0,0,.85-.29h1.41a40.92,40.92,0,0,0,11-3.39,33.86,33.86,0,0,0,9.61-6.5,26,26,0,0,0,7.35-9.89,40.26,40.26,0,0,0,2.26-13.57,36.88,36.88,0,0,0-2-13,20.39,20.39,0,0,0-6.5-8.76,42,42,0,0,0-8.76-5.65,37.17,37.17,0,0,0-9.61-2.83c-.85-.28-1.42-.28-2.27-.57h-3.39a1.06,1.06,0,0,1-.85-.28h-2.26a45.94,45.94,0,0,0-13.28,1.7c-4,1.41-7.35,3.11-9.9,5.65a57.86,57.86,0,0,0-7.07,7.63,33.38,33.38,0,0,0-4.52,8.2,22.37,22.37,0,0,0-1.41,4c-.28,1.41-.85,2.54-1.13,4a16.9,16.9,0,0,0-.29,3.67,12.79,12.79,0,0,0-.28,3.11V358.78Zm-160.29,0V227.33a75.94,75.94,0,0,1,4.52-27.14,71.47,71.47,0,0,1,13-22.9,61.73,61.73,0,0,1,21.48-15.55,72.71,72.71,0,0,1,28-5.09,71.82,71.82,0,0,1,27.42,5.09,67.12,67.12,0,0,1,36.75,39,94.06,94.06,0,0,1,4.8,30.82V358.78h-26.85V267.47h-73.5V240.9h73.5v-1.7c0-.28,0-.28.28-.56v-4.53a94.05,94.05,0,0,0-2.54-23.18c-2-6.5-4.53-12.15-8.2-16.39a38.9,38.9,0,0,0-12.72-9.9,41.33,41.33,0,0,0-17-3.39,51.59,51.59,0,0,0-15.55,2.26,29.72,29.72,0,0,0-11.31,6.5,43.15,43.15,0,0,0-7.35,9.05,45.62,45.62,0,0,0-4.81,9.89,34.85,34.85,0,0,0-1.41,5.09c-.28,1.7-.85,3.39-1.13,5.09a26.12,26.12,0,0,0-.28,4.52,20.91,20.91,0,0,0-.29,4.24V358.78ZM779.21,261c.57-13.29,2.54-24.88,5.94-35.06q4.67-15.25,13.57-25.44A119.3,119.3,0,0,1,817.37,183a81.15,81.15,0,0,1,19.79-11.31c4.81-2,9.61-3.68,14.14-5.09,4.52-1.13,9-2,13.28-2.83q6.36-.84,11.88-1.69c3.67-.29,6.78-.57,9.61-.85l17.81-.57v24.6H888.33a137.43,137.43,0,0,0-31.66,5.65,71.84,71.84,0,0,0-23.47,12.72A83.15,83.15,0,0,0,817.66,220a61.44,61.44,0,0,0-8.48,18.09,3,3,0,0,0-.29,1.41,3.12,3.12,0,0,0-.28,1.42,3.08,3.08,0,0,0-.28,1.41,3,3,0,0,0-.29,1.41l95.84-.56v24.31H808a35,35,0,0,0,.29,5.65,40.4,40.4,0,0,0,3.11,11.59c.85,2,1.41,4.24,2.26,6.22a74.66,74.66,0,0,0,10.18,15.83,94.13,94.13,0,0,0,13.85,14.42A60.28,60.28,0,0,0,855,331.36a52.44,52.44,0,0,0,18.94,3.39H877l26.86-.56v24.59H871.65l-5.09-.85c-1.69-.28-3.39-.28-4.8-.56a94.3,94.3,0,0,1-29.69-11,129.32,129.32,0,0,1-27.13-20.07,77.27,77.27,0,0,1-19.23-28.55,98.2,98.2,0,0,1-6.5-36.19ZM683.38,160.61H710V289.8a70.31,70.31,0,0,0,2,17.81A54.82,54.82,0,0,0,717.58,322a25.3,25.3,0,0,0,11.31,9.61c4.81,2.26,11,3.39,18.38,3.39h2l.29-.28h2.82l22.34-.56v24.59h-31.1a36.35,36.35,0,0,1-5.37-.28,44.67,44.67,0,0,1-6.22-.29,48,48,0,0,1-6.22-1.41,59.79,59.79,0,0,1-6.78-2,46.64,46.64,0,0,1-12.72-7.07A58.34,58.34,0,0,1,694.4,337.3,44.15,44.15,0,0,1,686.2,322c-2-5.94-2.82-12.72-2.82-20.64Zm-164.81,0h29.11V287.54c0,9.33.85,17,2.83,23.18q3,9.75,8.48,15.27a39.85,39.85,0,0,0,12.44,8.2A33.4,33.4,0,0,0,585.57,337a39.76,39.76,0,0,0,15.83-2.82,28.54,28.54,0,0,0,11.3-8.77,43.78,43.78,0,0,0,7.07-12.15A41.33,41.33,0,0,0,622.88,300v-.57a1,1,0,0,1,.28-.84v-138h29.12V292.06c0,12.16-1.69,22.34-5.09,31.1a53.69,53.69,0,0,1-15,21.49,63.61,63.61,0,0,1-21.48,12.43,82.09,82.09,0,0,1-25.16,4,65.9,65.9,0,0,1-24.88-4.52,68.53,68.53,0,0,1-22.05-13.29,52.86,52.86,0,0,1-15-21.2,70.17,70.17,0,0,1-5.09-27.14Z" transform="translate(-68.74 -61.2)" fill="#244794"/><path d="M1346.36,443.58a35.29,35.29,0,0,0-.3,6.23c.3,5.73,2.71,8.74,7,8.84,3.82.1,7.23-1.71,10.15-5.52L1367,432c-1.2-3.51-3.81-5.32-7.63-5.52a10.23,10.23,0,0,0-8.44,3.92c-2.21,2.71-3.72,7-4.52,13.15M1356.41,415a15.3,15.3,0,0,1,11.95,5.92l5.22-27.12h13.86l-13,75.34H1362l.8-5.73c-4,4.62-8.63,6.93-13.86,6.73a14.66,14.66,0,0,1-8.64-2.61,16.52,16.52,0,0,1-5.82-7.33,29.48,29.48,0,0,1-2.21-10.65,58.17,58.17,0,0,1,.1-5.93l.3-2.2a41.59,41.59,0,0,1,4.62-14.37,22.93,22.93,0,0,1,8.24-9.14A19.13,19.13,0,0,1,1356.41,415Zm-59.57,1-1.1,6.33q6.33-7.53,15.36-7.23,7.55.15,11.15,5.42c2.41,3.62,3.22,8.54,2.62,14.87l-5.63,33.75h-13.86l5.72-34a12.46,12.46,0,0,0,.1-3.42c-.4-3.41-2.51-5.12-6.32-5.22-3.62-.1-6.83,1.61-9.75,5.12l-6.63,37.47h-13.86l9.24-53Zm-54.54,43.39c4,.11,7.53-1.6,10.45-5.22l1.7-9.14-4.82-.1c-5,.1-8.74,1.71-11,4.72a7,7,0,0,0-1.6,3.92,5.21,5.21,0,0,0,1.1,4.22A6.15,6.15,0,0,0,1242.3,459.35ZM1253,469.1a13.79,13.79,0,0,1-.5-4.82c-4,4-8.54,5.92-13.56,5.82a16.76,16.76,0,0,1-11.56-4.52,14.05,14.05,0,0,1-4.32-11.05,16.16,16.16,0,0,1,7.34-13.26c4.62-3.11,10.85-4.62,18.58-4.62l6.53.1.6-3.21a11.1,11.1,0,0,0,.2-3.11,5.56,5.56,0,0,0-1.71-3.62,6.22,6.22,0,0,0-4-1.31,7.81,7.81,0,0,0-5.43,1.61,7.51,7.51,0,0,0-2.91,4.82l-13.86.1a15.2,15.2,0,0,1,6.93-12.35c4.42-3.21,9.94-4.72,16.47-4.62,5.93.1,10.65,1.91,14.06,5.32s4.83,7.94,4.32,13.36L1266,459.15l-.2,3.12a15,15,0,0,0,.81,5.92l-.1.91ZM1159.43,416l-1.1,6c4.32-4.72,9.44-7.13,15.57-6.93a14.84,14.84,0,0,1,8.13,2.21,10.81,10.81,0,0,1,4.32,5.82c4.72-5.52,10.25-8.23,16.48-8,4.92.1,8.53,1.71,11,5s3.52,7.84,3.12,14l-.1,1.21-5.63,33.85H1197.4l5.63-33.85a20.36,20.36,0,0,0,.1-3.42c-.2-3.41-2.11-5.22-5.83-5.32s-7,2-9.74,6.13l-.2,1.1-6.13,35.36h-13.86l5.62-33.85c.1-1.21.2-2.31.2-3.32-.3-3.51-2.21-5.32-5.92-5.42-3.42-.1-6.63,1.61-9.44,5l-6.63,37.57h-13.76l9.14-53Zm-45.6,10.55a9.45,9.45,0,0,0-6.73,2.41c-2,1.61-3.82,4.52-5.32,8.64h19l.3-1.31a15.5,15.5,0,0,0,.1-3.71,7.33,7.33,0,0,0-2.41-4.42A7.23,7.23,0,0,0,1113.83,426.51Zm-4.32,43.59a22.75,22.75,0,0,1-12.35-3.41,20,20,0,0,1-8-9.24,25.3,25.3,0,0,1-2.11-13l.2-1.91a34.64,34.64,0,0,1,4.52-14.26,27,27,0,0,1,9.65-9.95,23,23,0,0,1,13.16-3.31c6.83.1,12,2.61,15.56,7.53s4.83,11.05,4,18.58l-.8,6h-32.55a11.62,11.62,0,0,0,2.51,8.24,9.4,9.4,0,0,0,7.34,3.11c5,.2,9.44-1.81,13.26-5.82l6.32,7.83a19.76,19.76,0,0,1-8.63,7.13A27.27,27.27,0,0,1,1109.51,470.1ZM1046,409.63l-8.23,47.62,5.92.1c6.63,0,12-2.41,16-7.34s6.33-12.05,6.93-21.89l.1-1.51c0-5.42-1-9.54-3.11-12.45s-5.42-4.43-9.64-4.53Zm-24.71,59.47,12.46-71.42h20.49a27.57,27.57,0,0,1,13,3.32,24.91,24.91,0,0,1,9.34,8.94,30.5,30.5,0,0,1,4.32,13.15,42.7,42.7,0,0,1-.1,8.74l-.31,2.61c-1.5,10.45-5.62,18.79-12.35,25.12a35.15,35.15,0,0,1-24.71,9.54ZM987.27,416l-1.1,6.33q6.32-7.53,15.36-7.23,7.54.15,11.15,5.42c2.41,3.62,3.22,8.54,2.62,14.87l-5.63,33.75H995.81l5.72-34a12.46,12.46,0,0,0,.1-3.42c-.4-3.41-2.51-5.12-6.32-5.22-3.62-.1-6.83,1.61-9.75,5.12l-6.63,37.47H965.07l9.24-53ZM952.72,469.1H938.35l12.36-71.42h14.36Zm-39.78-42.59a9.45,9.45,0,0,0-6.73,2.41c-2,1.61-3.81,4.52-5.32,8.64h19l.3-1.31a14.53,14.53,0,0,0,.1-3.71,7.33,7.33,0,0,0-2.41-4.42A7.23,7.23,0,0,0,912.94,426.51Zm-4.32,43.59a22.75,22.75,0,0,1-12.35-3.41,20,20,0,0,1-8-9.24,25.3,25.3,0,0,1-2.11-13l.2-1.91a34.64,34.64,0,0,1,4.52-14.26,27.07,27.07,0,0,1,9.65-9.95,23,23,0,0,1,13.16-3.31c6.83.1,12.05,2.61,15.56,7.53s4.83,11.05,4,18.58l-.8,6H899.88a11.58,11.58,0,0,0,2.52,8.24,9.36,9.36,0,0,0,7.33,3.11c5,.2,9.44-1.81,13.26-5.82l6.33,7.83a19.85,19.85,0,0,1-8.64,7.13A27.27,27.27,0,0,1,908.62,470.1Zm-65.49-42.49,9.75.1a15.44,15.44,0,0,0,8.94-2.61,9.57,9.57,0,0,0,4.11-6.83c.81-5.72-2.21-8.64-9-8.64H846.25ZM841.43,438,838,457.25l11.35.1a14.83,14.83,0,0,0,8.84-2.62,10.65,10.65,0,0,0,4.32-7.13q.6-4.37-1.21-6.93c-1.3-1.6-3.41-2.51-6.42-2.61ZM821.54,469.1,834,397.68h22.3c8.24.1,14.47,1.71,18.58,5.12s6,8,5.63,14.07c-.4,7.23-4.62,12.45-12.46,15.87a12.05,12.05,0,0,1,6.63,5.42,17.37,17.37,0,0,1,2,9.54c-.5,6.83-3.11,12.06-7.93,15.77S857.3,469.1,849,469.1ZM786,440.57h8.84l4.82-14H790.8Zm5.93,8.44h-8.74l-6.93,20.09H767.1L774,449H763.38l1.41-8.44h12.15l4.72-14H770.81l1.51-8.54h12.35l7-20.39h9l-7,20.39h8.84l7-20.39h9.14l-7,20.39h10.25l-1.51,8.54H808.68l-4.72,14h10.45L812.9,449H801.05l-6.93,20.09H785Z" transform="translate(-68.74 -61.2)" fill="#6ea8d6"/><path d="M82.8,158.06,380.34,62.21a21.86,21.86,0,0,1,27,13.3L508.59,357.15a20.19,20.19,0,0,1-12.85,26.14L198.21,479.13a21.87,21.87,0,0,1-27-13.29L70,184.19A20.17,20.17,0,0,1,82.8,158.06" transform="translate(-68.74 -61.2)" fill="#008fbf" fill-rule="evenodd"/><path d="M324,438.61,217.28,368.44l26.86-166.22L319,174.54l31.56,10.78,128.81,90.56,29.21,81.27a20.19,20.19,0,0,1-12.85,26.14Z" transform="translate(-68.74 -61.2)" fill="#004f9e" fill-rule="evenodd"/><path d="M218.67,173.4,217.36,362l-.08,6.49c12.45.09,33.93-6,34-20l.51-67.12.57-76.17,52.83-.11c24.26.16,47,15.11,46.86,39l-.56,81.19c-.09,16.62,14.67,17,26.79,14.53.51-.1,3.13-.73,3.39-.83,4.6-1.8,3-3,3.16-18.59l.59-75.21c.38-45.86-40-71.23-79.15-71.53Z" transform="translate(-68.74 -61.2)" fill="#fff" fill-rule="evenodd"/></g></g></g></svg>